<svg xmlns="http://www.w3.org/2000/svg" viewBox="0 0 96 96" x="0px" y="0px"><title>Artboard 23</title><g><path d="M8,42.5652V86.5c8,0,16-8,16-22v-4C24,48.5916,20.9534,41.7515,8,42.5652Z"></path><path d="M8.0957,30.4414l-.0469,8.1228c.6729-.0376,1.3323-.0642,1.9571-.0642C28,38.5,28,54.4844,28,60.5v4a32.676,32.676,0,0,1-2.6643,13.4587h1.7468A25.5656,25.5656,0,0,0,48,52.75V10.5H30.8594C18.832,10.5,8.6211,19.4453,8.0957,30.4414ZM28,26.5a4,4,0,1,1,4-4A4.004,4.004,0,0,1,28,26.5Z"></path><path d="M66,10.5H52v20H86a1.9988,1.9988,0,0,0,2-2C88,16.3711,78.1309,10.5,66,10.5Z"></path><path d="M52,46.5H62c10.5334,0,16.86-4.3677,17.8074-12H52Z"></path></g></svg>